# xmcd
#
# Track frame offsets:
#	150
#	13604
#	29445
#	45453
#	59931
#	74578
#	96732
#	113945
#	128169
#	153485
#	164483
#	182416
#
# Disc length: 2640 seconds
#
# Revision: 0
# Processed by: cddbd v1.5.1PL0 Copyright (c) Steve Scherf et al.
# Submitted via: dBpowerAMP V4.0
#
DISCID=af0a4e0c
DTITLE=Big Blues Beat - Across The Tracks
DYEAR=1900
DGENRE=Blues
TTITLE0=Across The Tracks
TTITLE1=A Little Bit Of Blues
TTITLE2=Waitress Blues
TTITLE3=Straighten Up
TTITLE4=Hear The Blues
TTITLE5=Insecurity Blues
TTITLE6=Crazy Bout You
TTITLE7=Elmo On The Radio
TTITLE8=Blues City
TTITLE9=Ou Wee
TTITLE10=Trailer Park Mama
TTITLE11=Big Blues Beat
EXTD=
EXTT0=
EXTT1=
EXTT2=
EXTT3=
EXTT4=
EXTT5=
EXTT6=
EXTT7=
EXTT8=
EXTT9=
EXTT10=
EXTT11=
PLAYORDER=
